<svg width="320" height="320" viewBox="0 0 320 320" fill="none" xmlns="http://www.w3.org/2000/svg">
<path d="M318.745 159.616C318.745 184.531 298.547 204.729 273.632 204.729C248.717 204.729 228.52 184.531 228.52 159.616C228.52 134.701 248.717 114.503 273.632 114.503C298.547 114.503 318.745 134.701 318.745 159.616Z" fill="#FF2E2E" stroke="#FFC8C8"/>
<path d="M228.533 318.746V228.535H318.744V318.746H228.533Z" fill="#FF2E2E" stroke="#FFC8C8"/>
<path d="M273.278 45.9518L273.631 46.3053L273.985 45.9519L318.744 1.20684V90.7111H228.533V1.20711L273.278 45.9518Z" fill="#FF2E2E" stroke="#FFC8C8"/>
<path d="M187.49 273.633V273.632C187.475 266.246 184.532 259.167 179.308 253.946C174.084 248.725 167.004 245.786 159.618 245.774H159.617C154.103 245.774 148.714 247.41 144.13 250.473C139.545 253.536 135.973 257.891 133.864 262.985C131.754 268.079 131.203 273.684 132.28 279.091C133.357 284.499 136.013 289.465 139.912 293.363C143.812 297.26 148.78 299.914 154.188 300.988C159.596 302.062 165.201 301.507 170.294 299.395C175.387 297.284 179.739 293.709 182.8 289.123C185.861 284.537 187.493 279.147 187.49 273.633ZM204.73 273.633V273.634C204.731 279.558 203.566 285.425 201.299 290.9C199.033 296.374 195.71 301.348 191.521 305.537C187.331 309.727 182.357 313.05 176.883 315.316C171.409 317.583 165.542 318.748 159.617 318.746H159.617C150.694 318.746 141.972 316.1 134.553 311.143C127.135 306.186 121.352 299.141 117.938 290.897C114.523 282.654 113.63 273.583 115.371 264.832C117.111 256.081 121.408 248.043 127.717 241.734C134.026 235.425 142.065 231.128 150.816 229.387C159.567 227.647 168.637 228.54 176.881 231.955C185.124 235.369 192.17 241.151 197.127 248.57C202.084 255.989 204.73 264.711 204.73 273.633Z" fill="#FF2E2E" stroke="#FFC8C8"/>
<path d="M114.518 204.729V115.225L204.022 204.729H114.518Z" fill="#FF2E2E" stroke="#FFC8C8"/>
<path d="M0.5 204.727C24.3765 204.592 47.2458 195.049 64.1406 178.158C64.1406 178.158 64.1406 178.158 64.1406 178.158M0.5 204.727L64.1406 178.158M0.5 204.727V114.518H90.7096C90.5741 138.394 81.0319 161.263 64.1406 178.158M0.5 204.727L64.1406 178.158" fill="#FF2E2E" stroke="#FFC8C8"/>
<path d="M40.3385 45.5986L0.5 85.4371V5.77419L40.3385 45.5986Z" fill="#FF2E2E" stroke="#FFC8C8"/>
<path d="M90.7117 5.77418V85.4371L50.8732 45.5986L90.7117 5.77418Z" fill="#FF2E2E" stroke="#FFC8C8"/>
<path d="M204.715 20.5156C204.715 31.5699 195.753 40.5311 184.699 40.5311C173.645 40.5311 164.684 31.5699 164.684 20.5156C164.684 9.46127 173.645 0.5 184.699 0.5C195.753 0.5 204.715 9.46127 204.715 20.5156Z" fill="#FF2E2E" stroke="#FFC8C8"/>
<path d="M154.549 20.5156C154.549 31.5699 145.587 40.5311 134.533 40.5311C123.479 40.5311 114.518 31.5699 114.518 20.5156C114.518 9.46127 123.479 0.5 134.533 0.5C145.587 0.5 154.549 9.46127 154.549 20.5156Z" fill="#FF2E2E" stroke="#FFC8C8"/>
<path d="M204.715 70.6957C204.715 81.75 195.753 90.7113 184.699 90.7113C173.645 90.7113 164.684 81.75 164.684 70.6957C164.684 59.6415 173.645 50.6802 184.699 50.6802C195.753 50.6802 204.715 59.6415 204.715 70.6957Z" fill="#FF2E2E" stroke="#FFC8C8"/>
<path d="M154.549 70.6957C154.549 81.75 145.587 90.7113 134.533 90.7113C123.479 90.7113 114.518 81.75 114.518 70.6957C114.518 59.6415 123.479 50.6802 134.533 50.6802C145.587 50.6802 154.549 59.6415 154.549 70.6957Z" fill="#FF2E2E" stroke="#FFC8C8"/>
<path d="M63.6086 244.824C68.5349 240.644 71.8517 234.885 72.9987 228.535H90.4362C89.2093 239.457 84.0355 249.563 75.8771 256.947C67.582 264.454 56.7933 268.611 45.6054 268.611C34.4176 268.611 23.6288 264.454 15.3337 256.947C7.17533 249.563 2.00156 239.457 0.77462 228.535H18.1684C19.3154 234.885 22.6322 240.644 27.5585 244.824C32.5929 249.096 38.9809 251.441 45.5835 251.441C52.1862 251.441 58.5742 249.096 63.6086 244.824Z" fill="#FF2E2E" stroke="#FFC8C8"/>
<path d="M75.8651 290.351C84.0242 297.729 89.2019 307.828 90.4358 318.746H73.0425C71.8955 312.397 68.5787 306.637 63.6523 302.457C58.618 298.185 52.2299 295.84 45.6273 295.84C39.0247 295.84 32.6367 298.185 27.6023 302.457C22.6759 306.637 19.3591 312.397 18.2121 318.746H0.774836C2.00547 307.829 7.18022 297.73 15.3369 290.352C23.6305 282.851 34.4152 278.698 45.598 278.7H45.5982C56.7826 278.698 67.5692 282.85 75.8651 290.351Z" fill="#FF2E2E" stroke="#FFC8C8"/>
<path d="M18.1684 318.746H0.77462C2.00156 307.824 7.17533 297.718 15.3337 290.334C23.6288 282.827 34.4176 278.67 45.6054 278.67C56.7933 278.67 67.582 282.827 75.8771 290.334C84.0355 297.718 89.2093 307.824 90.4362 318.746H72.9987C71.8517 312.397 68.5349 306.637 63.6086 302.457C58.5742 298.185 52.1862 295.84 45.5835 295.84C38.9809 295.84 32.5929 298.185 27.5585 302.457C22.6322 306.637 19.3154 312.397 18.1684 318.746Z" fill="#FF2E2E" stroke="#FFC8C8"/>
<path d="M73.0425 228.535H90.4362C89.2093 239.457 84.0355 249.563 75.8771 256.947C67.582 264.454 56.7933 268.611 45.6054 268.611C34.4176 268.611 23.6288 264.454 15.3337 256.947C7.17533 249.563 2.00156 239.457 0.77462 228.535H18.2121C19.3591 234.885 22.6759 240.644 27.6023 244.824C32.6367 249.096 39.0247 251.441 45.6273 251.441C52.2299 251.441 58.618 249.096 63.6523 244.824C68.5787 240.644 71.8955 234.885 73.0425 228.535Z" fill="#FF2E2E" stroke="#FFC8C8"/>
</svg>
